<svg xmlns="http://www.w3.org/2000/svg" width="150" height="20" fill="none"><path fill="#FDC332" d="M.96.828h4.368v15.064h8.932V19H.96V.828ZM23.838 19.28c-4.797 0-7.196-1.465-7.196-4.396v-4.872c0-1.699.541-2.93 1.624-3.696 1.102-.765 2.79-1.148 5.068-1.148 2.147 0 3.715.373 4.704 1.12 1.008.728 1.512 1.97 1.512 3.724v3.304h-8.792v1.232c0 .784.28 1.344.84 1.68.56.336 1.568.504 3.024.504 1.344 0 2.856-.196 4.536-.588v2.604c-1.661.355-3.434.532-5.32.532Zm1.82-8.288v-1.96c0-.448-.187-.784-.56-1.008-.354-.224-.961-.336-1.82-.336-.99 0-1.652.112-1.988.336a1.156 1.156 0 0 0-.532 1.008v1.96h4.9Zm10.853 8.288c-1.27 0-2.222-.112-2.856-.336a2.3 2.3 0 0 1-1.316-1.26c-.243-.616-.364-1.53-.364-2.744 0-1.083.13-1.932.392-2.548.28-.616.719-1.055 1.316-1.316.616-.28 1.456-.42 2.52-.42h4.592v-.924c0-.579-.084-1.008-.252-1.288-.15-.28-.439-.476-.868-.588-.41-.112-1.036-.168-1.876-.168-1.157 0-2.744.112-4.76.336V5.448c1.474-.187 3.201-.28 5.18-.28 1.736 0 3.07.13 4.004.392.952.261 1.633.71 2.044 1.344.41.635.616 1.559.616 2.772V19h-4.004v-1.232c-.317.541-.747.924-1.288 1.148-.541.243-1.568.364-3.08.364Zm1.596-2.548c.821 0 1.41-.028 1.764-.084.261-.037.438-.093.532-.168a.824.824 0 0 0 .28-.364c.075-.13.112-.327.112-.588v-2.632h-2.8c-.635 0-1.083.047-1.344.14a.76.76 0 0 0-.532.504c-.093.243-.14.681-.14 1.316 0 .616.047 1.045.14 1.288a.76.76 0 0 0 .532.476c.28.075.765.112 1.456.112ZM48.48 5.448h3.892v2.38c0-.43.177-.85.532-1.26.354-.41.802-.747 1.343-1.008.56-.261 1.111-.392 1.653-.392h1.456v3.388h-1.4c-1.158 0-2.017.177-2.577.532-.54.355-.811.943-.811 1.764V19H48.48V5.448Zm11.128 0h4.032V7.1c.318-1.288 1.764-1.932 4.34-1.932 1.736 0 2.95.317 3.64.952.71.616 1.064 1.596 1.064 2.94V19h-4.088V9.592c0-.523-.056-.915-.168-1.176-.093-.261-.298-.448-.616-.56-.298-.112-.765-.168-1.4-.168-.802 0-1.39.056-1.764.168-.373.093-.625.27-.756.532-.13.261-.196.663-.196 1.204V19h-4.088V5.448Zm16.26 9.688h4.369V19h-4.368v-3.864ZM90.047.828h4.368v15.064h8.932V19h-13.3V.828Zm22.57 18.452c-.84 0-1.531-.028-2.072-.084a10.89 10.89 0 0 1-1.736-.336c-.672-.187-1.213-.448-1.624-.784-.411-.355-.756-.85-1.036-1.484-.28-.616-.42-1.363-.42-2.24v-4.004c0-.896.14-1.68.42-2.352.28-.672.644-1.195 1.092-1.568.392-.317.905-.579 1.54-.784a8.142 8.142 0 0 1 1.904-.42 37.03 37.03 0 0 1 1.932-.056c.859 0 1.54.028 2.044.084.523.037 1.092.15 1.708.336.672.205 1.213.485 1.624.84.429.355.793.859 1.092 1.512.28.672.42 1.475.42 2.408v4.004c0 .84-.14 1.577-.42 2.212-.261.635-.607 1.13-1.036 1.484-.373.317-.887.579-1.54.784a9.783 9.783 0 0 1-1.876.364c-.56.056-1.232.084-2.016.084Zm0-2.548c.765 0 1.344-.056 1.736-.168.392-.13.663-.327.812-.588.168-.261.252-.644.252-1.148V9.704c0-.747-.196-1.27-.588-1.568-.392-.299-1.129-.448-2.212-.448-1.083 0-1.82.15-2.212.448-.392.299-.588.821-.588 1.568v5.124c0 .504.075.887.224 1.148.168.261.448.457.84.588.392.112.971.168 1.736.168Zm8.282-11.284h4.34l2.968 9.38 2.856-9.38h4.116L130.194 19h-4.144l-5.152-13.552Zm22.87 13.832c-4.797 0-7.196-1.465-7.196-4.396v-4.872c0-1.699.541-2.93 1.624-3.696 1.101-.765 2.791-1.148 5.068-1.148 2.147 0 3.715.373 4.704 1.12 1.008.728 1.512 1.97 1.512 3.724v3.304h-8.792v1.232c0 .784.28 1.344.84 1.68.56.336 1.568.504 3.024.504 1.344 0 2.856-.196 4.536-.588v2.604c-1.661.355-3.435.532-5.32.532Zm1.82-8.288v-1.96c0-.448-.187-.784-.56-1.008-.355-.224-.961-.336-1.82-.336-.989 0-1.652.112-1.988.336a1.155 1.155 0 0 0-.532 1.008v1.96h4.9Z"/></svg>