<svg xmlns="http://www.w3.org/2000/svg" width="181" height="25" fill="none"><path fill="#fff" d="M18.16 1.76V24h-3.648v-9.728H4.048V24H.4V1.76h3.648v9.536h10.464V1.76h3.648Zm20.963 12.992c0 .661-.043 1.259-.128 1.792H25.523c.106 1.408.629 2.539 1.567 3.392.94.853 2.091 1.28 3.457 1.28 1.962 0 3.349-.821 4.16-2.464h3.935c-.533 1.621-1.504 2.955-2.912 4-1.386 1.024-3.114 1.536-5.183 1.536-1.686 0-3.2-.373-4.544-1.12a8.37 8.37 0 0 1-3.137-3.2c-.746-1.387-1.12-2.987-1.12-4.8 0-1.813.363-3.403 1.088-4.768.747-1.387 1.782-2.453 3.105-3.2 1.343-.747 2.88-1.12 4.608-1.12 1.664 0 3.146.363 4.448 1.088a7.66 7.66 0 0 1 3.04 3.072c.725 1.301 1.088 2.805 1.088 4.512ZM35.315 13.6c-.022-1.344-.502-2.421-1.44-3.232-.94-.81-2.102-1.216-3.488-1.216-1.26 0-2.337.405-3.233 1.216-.895.79-1.429 1.867-1.6 3.232h9.76ZM46.36.32V24h-3.648V.32h3.648Zm8.437 0V24H51.15V.32h3.648Zm12.438 23.968c-1.665 0-3.169-.373-4.513-1.12a8.303 8.303 0 0 1-3.167-3.2c-.768-1.387-1.152-2.987-1.152-4.8 0-1.792.394-3.381 1.183-4.768.79-1.387 1.867-2.453 3.232-3.2 1.366-.747 2.891-1.12 4.576-1.12 1.686 0 3.211.373 4.577 1.12 1.365.747 2.442 1.813 3.232 3.2.789 1.387 1.184 2.976 1.184 4.768 0 1.792-.406 3.381-1.217 4.768a8.503 8.503 0 0 1-3.328 3.232c-1.386.747-2.922 1.12-4.608 1.12Zm0-3.168c.938 0 1.813-.224 2.623-.672.833-.448 1.505-1.12 2.017-2.016.511-.896.767-1.984.767-3.264 0-1.28-.245-2.357-.736-3.232-.49-.896-1.14-1.568-1.951-2.016a5.338 5.338 0 0 0-2.624-.672c-.94 0-1.814.224-2.624.672-.79.448-1.42 1.12-1.889 2.016-.469.875-.704 1.952-.704 3.232 0 1.899.48 3.37 1.44 4.416.982 1.024 2.208 1.536 3.68 1.536Zm14.23 3.104c-.662 0-1.216-.224-1.664-.672-.448-.448-.672-1.003-.672-1.664s.224-1.216.672-1.664c.448-.448 1.002-.672 1.664-.672.64 0 1.184.224 1.632.672.448.448.672 1.003.672 1.664s-.224 1.216-.672 1.664a2.222 2.222 0 0 1-1.632.672Zm18.207-3.168h7.52V24H96.025V1.76h3.648v19.296Zm26.731-6.304c0 .661-.043 1.259-.128 1.792h-13.472c.106 1.408.629 2.539 1.568 3.392.938.853 2.09 1.28 3.456 1.28 1.962 0 3.349-.821 4.16-2.464h3.936c-.534 1.621-1.504 2.955-2.912 4-1.387 1.024-3.115 1.536-5.184 1.536-1.686 0-3.2-.373-4.544-1.12-1.323-.768-2.368-1.835-3.136-3.2-.747-1.387-1.12-2.987-1.12-4.8 0-1.813.362-3.403 1.088-4.768.746-1.387 1.781-2.453 3.104-3.2 1.344-.747 2.88-1.12 4.608-1.12 1.664 0 3.146.363 4.448 1.088a7.667 7.667 0 0 1 3.04 3.072c.725 1.301 1.088 2.805 1.088 4.512Zm-3.808-1.152c-.022-1.344-.502-2.421-1.44-3.232-.939-.81-2.102-1.216-3.488-1.216-1.259 0-2.336.405-3.232 1.216-.896.79-1.43 1.867-1.6 3.232h9.76Zm6.182 1.504c0-1.77.362-3.339 1.088-4.704.746-1.365 1.749-2.421 3.008-3.168 1.28-.768 2.688-1.152 4.224-1.152 1.386 0 2.592.277 3.616.832 1.045.533 1.877 1.205 2.496 2.016v-2.56h3.68V24h-3.68v-2.624c-.619.832-1.462 1.525-2.528 2.08-1.067.555-2.283.832-3.648.832-1.515 0-2.902-.384-4.16-1.152-1.259-.79-2.262-1.877-3.008-3.264-.726-1.408-1.088-2.997-1.088-4.768Zm14.432.064c0-1.216-.256-2.272-.768-3.168-.491-.896-1.142-1.579-1.952-2.048a5.151 5.151 0 0 0-2.624-.704c-.939 0-1.814.235-2.624.704-.811.448-1.472 1.12-1.984 2.016-.491.875-.736 1.92-.736 3.136 0 1.216.245 2.283.736 3.2.512.917 1.173 1.621 1.984 2.112.832.47 1.706.704 2.624.704.938 0 1.813-.235 2.624-.704.81-.47 1.461-1.152 1.952-2.048.512-.917.768-1.984.768-3.2Zm12.119-6.24a5.652 5.652 0 0 1 2.112-2.08c.896-.512 1.952-.768 3.168-.768v3.776h-.928c-1.429 0-2.517.363-3.264 1.088-.725.725-1.088 1.984-1.088 3.776V24h-3.648V6.368h3.648v2.56Zm17.53-2.848c1.386 0 2.624.288 3.712.864 1.109.576 1.973 1.43 2.592 2.56.618 1.13.928 2.496.928 4.096V24h-3.616v-9.856c0-1.579-.395-2.784-1.184-3.616-.79-.853-1.867-1.28-3.232-1.28-1.366 0-2.454.427-3.264 1.28-.79.832-1.184 2.037-1.184 3.616V24h-3.648V6.368h3.648v2.016c.597-.725 1.354-1.29 2.272-1.696a7.423 7.423 0 0 1 2.976-.608Z"/></svg>